<svg xmlns="http://www.w3.org/2000/svg" viewBox="0 0 512 512">
  <!-- Laptop Icon similar to fa-laptop-code -->
  <path fill="#0071e3" d="M0 312c0 26.5 21.5 48 48 48h256c26.5 0 48-21.5 48-48V64c0-26.5-21.5-48-48-48H48C21.5 16 0 37.5 0 64v248zm432.5 59.8c-1.2-2.3 0-5.1 2.5-5.8l20.8-6c8.4-2.4 16.6-4 24.2-4.8V224c0-17.7-14.3-32-32-32h-80c-17.7 0-32-14.3-32-32s14.3-32 32-32h80c53 0 96 43 96 96v176c0 23.3-16.3 42.8-38.3 47.1l-25.2 4.9c-2.4.5-4.7-1.4-4.7-3.9v-.4c0-2.3 1.9-4.1 4.1-4.2 13-.6 24.1-11.4 24.1-24.5V224c0-35.3-28.7-64-64-64h-80c-7.6 0-14.8 2.6-20.6 7H416c8.8 0 16 7.2 16 16v96h-64c-8.8 0-16 7.2-16 16v16c0 8.8 7.2 16 16 16h64v16c0 8.8-7.2 16-16 16h-3.3l-20.2 5.8zM413 416H99c-23.7 0-43-19.3-43-43h399c0 23.7-19.3 43-43 43z"/>
  <!-- Code symbol overlay or integrated - simplified for favicon legibility -->
  <path fill="#ffffff" d="M128 200c0-4.4 3.6-8 8-8h16c4.4 0 8 3.6 8 8v48c0 4.4-3.6 8-8 8h-16c-4.4 0-8-3.6-8-8v-48zm64 0c0-4.4 3.6-8 8-8h16c4.4 0 8 3.6 8 8v48c0 4.4-3.6 8-8 8h-16c-4.4 0-8-3.6-8-8v-48z"/> 
  <rect x="32" y="48" width="288" height="230" rx="15" ry="15" fill="#0071e3" />
  <rect x="48" y="64" width="256" height="180" rx="5" ry="5" fill="#ffffff" />
  <path fill="#0071e3" d="M110 130l-30 30 30 30M242 130l30 30-30 30M165 195l25-70"/> 
  <!-- Base -->
  <path fill="#1d1d1f" d="M448 352H64c-35.3 0-64 28.7-64 64v16c0 17.7 14.3 32 32 32h448c17.7 0 32-14.3 32-32v-16c0-35.3-28.7-64-64-64z"/>
</svg>
